<?xml version="1.0" encoding="UTF-8"?>
<svg version="1.1" xmlns="http://www.w3.org/2000/svg" width="485" height="485">
<path d="M0 0 C0.97812653 0.00337372 1.95625305 0.00674744 2.96401978 0.01022339 C57.75995128 0.28279005 110.2621335 18.91721927 152.875 53.4375 C153.44234863 53.88915527 154.00969727 54.34081055 154.59423828 54.80615234 C168.79860376 66.13983047 181.83577969 79.07808266 192.60546875 93.72802734 C193.88628011 95.45268911 195.20373974 97.14313244 196.53125 98.83203125 C216.77423562 124.9603694 230.23340064 156.56541715 237.6875 188.625 C237.96158691 189.79554932 237.96158691 189.79554932 238.24121094 190.98974609 C241.96490779 208.10429734 243.43056655 225.07648889 243.3125 242.5625 C243.30912628 243.54062653 243.30575256 244.51875305 243.30227661 245.52651978 C243.02970995 300.32245128 224.39528073 352.8246335 189.875 395.4375 C189.42334473 396.00484863 188.97168945 396.57219727 188.50634766 397.15673828 C177.17266953 411.36110376 164.23441734 424.39827969 149.58447266 435.16796875 C147.85981089 436.44878011 146.16936756 437.76623974 144.48046875 439.09375 C118.3521306 459.33673562 86.74708285 472.79590064 54.6875 480.25 C53.51695068 480.52408691 53.51695068 480.52408691 52.32275391 480.80371094 C35.20820266 484.52740779 18.23601111 485.99306655 0.75 485.875 C-0.22812653 485.87162628 -1.20625305 485.86825256 -2.21401978 485.86477661 C-57.00995128 485.59220995 -109.5121335 466.95778073 -152.125 432.4375 C-152.69234863 431.98584473 -153.25969727 431.53418945 -153.84423828 431.06884766 C-168.04860376 419.73516953 -181.08577969 406.79691734 -191.85546875 392.14697266 C-193.13628011 390.42231089 -194.45373974 388.73186756 -195.78125 387.04296875 C-216.02423562 360.9146306 -229.48340064 329.30958285 -236.9375 297.25 C-237.12022461 296.46963379 -237.30294922 295.68926758 -237.49121094 294.88525391 C-241.21490779 277.77070266 -242.68056655 260.79851111 -242.5625 243.3125 C-242.55912628 242.33437347 -242.55575256 241.35624695 -242.55227661 240.34848022 C-242.27970995 185.55254872 -223.64528073 133.0503665 -189.125 90.4375 C-188.67334473 89.87015137 -188.22168945 89.30280273 -187.75634766 88.71826172 C-176.42266953 74.51389624 -163.48441734 61.47672031 -148.83447266 50.70703125 C-147.10981089 49.42621989 -145.41936756 48.10876026 -143.73046875 46.78125 C-117.6021306 26.53826438 -85.99708285 13.07909936 -53.9375 5.625 C-53.15713379 5.44227539 -52.37676758 5.25955078 -51.57275391 5.07128906 C-34.45820266 1.34759221 -17.48601111 -0.11806655 0 0 Z " fill="#000000" transform="translate(242.125,-0.4375)"/>
<path d="M0 0 C1.26488754 -0.00945648 2.52977509 -0.01891296 3.83299255 -0.02865601 C5.21036085 -0.02328556 6.5877263 -0.01713242 7.96508789 -0.01025391 C9.38229014 -0.01227583 10.79949137 -0.01518825 12.21669006 -0.01895142 C15.18492553 -0.02337069 18.15288985 -0.01695778 21.12109375 -0.00292969 C24.91866409 0.01414672 28.7155976 0.0043289 32.51314449 -0.01364708 C35.43946595 -0.02450921 38.3656375 -0.02102726 41.29196358 -0.0132637 C42.69174844 -0.01126758 44.09154707 -0.01370029 45.49131584 -0.02070236 C47.45123902 -0.02835418 49.41121013 -0.01461595 51.37109375 0 C53.04177162 0.00358017 53.04177162 0.00358017 54.74620056 0.00723267 C59.84814775 0.65422445 63.61125614 3.36847214 66.75024414 7.38818359 C67.25144958 10.25178528 67.25144958 10.25178528 67.25195312 13.60620117 C67.26133408 14.86463333 67.27071503 16.12306549 67.28038025 17.41963196 C67.26989847 18.79066648 67.25852898 20.16169446 67.24633789 21.53271484 C67.24649296 22.94512506 67.24798329 24.35753571 67.25074768 25.76994324 C67.25213147 28.72987693 67.2395826 31.68932599 67.21679688 34.64916992 C67.18848968 38.4286372 67.19112825 42.20729474 67.20388699 45.98682117 C67.2108716 48.90466627 67.20302208 51.822327 67.19062996 54.74014854 C67.18613688 56.13269021 67.18575979 57.52525183 67.18969536 58.91779518 C67.20593154 69.7231907 66.55908996 76.00493827 58.81216431 83.83074951 C58.16524628 84.46329651 57.51832825 85.09584351 56.85180664 85.74755859 C56.17983246 86.41861633 55.50785828 87.08967407 54.81552124 87.78106689 C53.39972969 89.19084253 51.97910656 90.59578081 50.55395508 91.99609375 C48.37857002 94.13491362 46.21967058 96.28935981 44.06274414 98.44677734 C42.68087216 99.818819 41.29808992 101.18994461 39.91430664 102.56005859 C39.27143707 103.20070251 38.6285675 103.84134644 37.96621704 104.50140381 C37.35563446 105.09922668 36.74505188 105.69704956 36.1159668 106.31298828 C35.5854068 106.83592468 35.0548468 107.35886108 34.50820923 107.89764404 C30.36977674 111.40652903 27.30759693 112.76335945 21.86181641 112.79223633 C20.70033585 112.8049205 19.53885529 112.81760468 18.34217834 112.83067322 C17.09625412 112.82773758 15.8503299 112.82480194 14.56665039 112.82177734 C13.27838852 112.8270192 11.99012665 112.83226105 10.66282654 112.83766174 C7.9401569 112.84657873 5.21778079 112.8441864 2.49511719 112.83422852 C-0.98300305 112.8227432 -4.46010732 112.84294884 -7.93809414 112.87214565 C-11.26989877 112.89497268 -14.60146876 112.88803827 -17.93334961 112.88427734 C-19.1772496 112.89551132 -20.4211496 112.9067453 -21.70274353 112.9183197 C-32.6643682 112.83002537 -32.6643682 112.83002537 -37.24975586 108.38818359 C-39.74053394 104.83167631 -40.63820871 102.3530603 -40.74902344 98.02563477 C-40.78107376 96.97651413 -40.81312408 95.92739349 -40.84614563 94.84648132 C-40.86203232 93.71942276 -40.87791901 92.5923642 -40.89428711 91.43115234 C-40.913759 90.25539139 -40.9332309 89.07963043 -40.95329285 87.86824036 C-40.98600121 85.37604481 -41.00980835 82.88371889 -41.02539062 80.39135742 C-41.06177512 76.62544166 -41.16761876 72.8655334 -41.27514648 69.10107422 C-41.49161784 55.01006479 -40.61854191 45.04823081 -31.53182983 33.98135376 C-29.63007038 31.61813098 -28.04400108 29.07317893 -26.42163086 26.51318359 C-25.28339098 24.80326016 -24.14284033 23.09487222 -22.99975586 21.38818359 C-22.42741211 20.52580078 -21.85506836 19.66341797 -21.26538086 18.77490234 C-8.74230338 0.01874766 -8.74230338 0.01874766 0 0 Z " fill="#AFAFAF" transform="translate(55.249755859375,172.61181640625)"/>
<path d="M0 0 C21.45 0 42.9 0 65 0 C65 5.28 65 10.56 65 16 C61.04 16 57.08 16 53 16 C53 16.66 53 17.32 53 18 C56.96 18 60.92 18 65 18 C65 20.64 65 23.28 65 26 C61.04 26 57.08 26 53 26 C53 29.96 53 33.92 53 38 C46.73 38 40.46 38 34 38 C34 30.74 34 23.48 34 16 C31.69 16 29.38 16 27 16 C27 23.26 27 30.52 27 38 C20.07 38 13.14 38 6 38 C6 30.74 6 23.48 6 16 C4.02 16 2.04 16 0 16 C0 10.72 0 5.44 0 0 Z " fill="#030303" transform="translate(50,188)"/>
<path d="M0 0 C0.598125 0.20625 1.19625 0.4125 1.8125 0.625 C1.28140625 1.06070312 0.7503125 1.49640625 0.203125 1.9453125 C-4.05833897 5.53800657 -7.36884848 8.80980366 -10.1875 13.625 C-5.07077027 10.12277237 -1.28105668 7.03872419 1.8125 1.625 C2.625 3.25 2.625 3.25 2.8125 5.625 C-0.02775765 10.18969979 -3.18953715 12.30838105 -7.8125 15 C-11.53499368 17.25150828 -13.79569471 18.73412157 -15.3125 22.875 C-15.60125 24.1125 -15.89 25.35 -16.1875 26.625 C-16.6825 28.11 -16.6825 28.11 -17.1875 29.625 C-17.8475 29.625 -18.5075 29.625 -19.1875 29.625 C-19.1875 32.595 -19.1875 35.565 -19.1875 38.625 C-11.06154144 34.93138247 -6.76137378 26.48165491 -3.5234375 18.59375 C-2.1875 16.625 -2.1875 16.625 0.28515625 15.81640625 C3.00264919 15.61059921 5.18188082 15.94855507 7.8125 16.625 C8.06 15.8825 8.3075 15.14 8.5625 14.375 C9.91715039 11.39476913 11.3226541 9.72580748 13.8125 7.625 C14.4725 7.625 15.1325 7.625 15.8125 7.625 C15.1525 9.605 14.4925 11.585 13.8125 13.625 C14.369375 13.25375 14.92625 12.8825 15.5 12.5 C17.8125 11.625 17.8125 11.625 20.5625 12.5 C21.305 12.87125 22.0475 13.2425 22.8125 13.625 C23.4725 12.305 24.1325 10.985 24.8125 9.625 C25.4725 9.625 26.1325 9.625 26.8125 9.625 C26.05007784 13.23555091 24.68776626 16.48334625 23.25 19.875 C22.79496094 20.95265625 22.33992188 22.0303125 21.87109375 23.140625 C21.34708984 24.37039063 21.34708984 24.37039063 20.8125 25.625 C23.90968696 22.79252987 25.76917709 20.16090391 27.5625 16.375 C27.99046875 15.48296875 28.4184375 14.5909375 28.859375 13.671875 C29.33117187 12.65867187 29.33117187 12.65867187 29.8125 11.625 C30.8025 11.625 31.7925 11.625 32.8125 11.625 C32.34127252 18.5363364 29.60613994 24.34704161 26.8125 30.625 C27.4725 30.955 28.1325 31.285 28.8125 31.625 C27.91724609 32.45644531 27.91724609 32.45644531 27.00390625 33.3046875 C24.12048632 36.35772036 22.3172086 39.73594537 20.27734375 43.3828125 C18.8125 45.625 18.8125 45.625 15.8125 47.625 C13.625 47.25 13.625 47.25 11.8125 46.625 C13.27734375 45.453125 14.7421875 44.28125 16.20703125 43.109375 C19.77260006 39.81274204 21.42476451 36.43775108 23 31.875 C23.51626953 30.39773438 23.51626953 30.39773438 24.04296875 28.890625 C24.29691406 28.14296875 24.55085938 27.3953125 24.8125 26.625 C21.37456661 26.80629815 21.37456661 26.80629815 17.8125 27.625 C17.09607102 28.93226881 16.43674 30.27128414 15.8125 31.625 C14.54980158 33.04587084 13.2329496 34.41986687 11.875 35.75 C11.18535156 36.43320312 10.49570313 37.11640625 9.78515625 37.8203125 C7.8125 39.625 7.8125 39.625 4.8125 41.625 C2.125 41.25 2.125 41.25 -0.1875 40.625 C-0.1875 37.985 -0.1875 35.345 -0.1875 32.625 C-1.54875 32.8725 -1.54875 32.8725 -2.9375 33.125 C-6.1875 33.625 -6.1875 33.625 -10.1875 33.625 C-11.75590828 35.11551536 -11.75590828 35.11551536 -13.0625 37.0625 C-15.3022305 39.8835346 -15.90532708 40.53981572 -19.5 41.625 C-20.386875 41.625 -21.27375 41.625 -22.1875 41.625 C-23.1875 40.625 -23.1875 40.625 -23.28515625 38.77734375 C-23.25260417 36.7265625 -23.22005208 34.67578125 -23.1875 32.625 C-25.6625 33.12 -25.6625 33.12 -28.1875 33.625 C-28.8475 32.305 -29.5075 30.985 -30.1875 29.625 C-34.8337953 29.30820714 -36.57904071 29.8313541 -40.1875 32.625 C-42.9375 32.8125 -42.9375 32.8125 -45.1875 32.625 C-45.5175 31.965 -45.8475 31.305 -46.1875 30.625 C-46.991875 30.810625 -47.79625 30.99625 -48.625 31.1875 C-49.470625 31.331875 -50.31625 31.47625 -51.1875 31.625 C-52.1875 30.625 -52.1875 30.625 -52.453125 27.95703125 C-52.13616647 23.98106621 -50.96359528 21.73047167 -48.9375 18.3125 C-48.33421875 17.26449219 -47.7309375 16.21648437 -47.109375 15.13671875 C-45.1875 12.625 -45.1875 12.625 -42.953125 11.76953125 C-42.37046875 11.72183594 -41.7878125 11.67414063 -41.1875 11.625 C-41.80896808 13.06403046 -42.43482059 14.50116793 -43.0625 15.9375 C-43.41054687 16.73800781 -43.75859375 17.53851563 -44.1171875 18.36328125 C-45.1875 20.625 -45.1875 20.625 -47.1875 23.625 C-47.1875 24.945 -47.1875 26.265 -47.1875 27.625 C-44.78677045 24.74412454 -42.71458963 22.06095166 -41.1875 18.625 C-40.1975 18.625 -39.2075 18.625 -38.1875 18.625 C-38.1875 19.945 -38.1875 21.265 -38.1875 22.625 C-38.8475 22.625 -39.5075 22.625 -40.1875 22.625 C-40.5175 25.265 -40.8475 27.905 -41.1875 30.625 C-40.259375 29.635 -40.259375 29.635 -39.3125 28.625 C-37.1875 26.625 -37.1875 26.625 -35.1875 26.625 C-35.125625 25.903125 -35.06375 25.18125 -35 24.4375 C-33.93562129 20.75311217 -32.0009208 19.16394072 -29.1875 16.625 C-28.5275 15.965 -27.8675 15.305 -27.1875 14.625 C-21.85416667 14.29166667 -21.85416667 14.29166667 -19.1875 15.625 C-19.1875 16.285 -19.1875 16.945 -19.1875 17.625 C-15.60857426 16.43202475 -15.24722098 15.55919845 -13.3125 12.4375 C-4.80276303 -0.82333081 -4.80276303 -0.82333081 0 0 Z " fill="#64848E" transform="translate(213.1875,279.375)"/>
<path d="M0 0 C2.9654455 1.05941813 5.28494718 2.36072282 8 4 C8 3.01 8 2.02 8 1 C10.97 1 13.94 1 17 1 C17 12.55 17 24.1 17 36 C14.03 36 11.06 36 8 36 C8 34.68 8 33.36 8 32 C7.29875 32.3609375 6.5975 32.721875 5.875 33.09375 C-0.04424235 35.98903159 -4.39945969 38.00686208 -11 37 C-15.85620467 34.38512056 -20.21884276 31.34347171 -22 26 C-22.50502716 18.81307505 -22.89602821 12.23364514 -19 6 C-13.11604406 0.00621021 -8.18242396 -0.84570019 0 0 Z " fill="#A7A7A7" transform="translate(204,231)"/>
<path d="M0 0 C4.72507124 1.9369441 7.92682947 4.6341466 11.0625 8.625 C12.74495397 14.68183429 13.4076209 20.79062434 10.828125 26.671875 C7.71455954 31.58296279 4.67355039 34.60658433 -0.8125 36.6875 C-7.97608587 37.71086941 -12.98834784 37.12800115 -19 33 C-22.77987676 29.02118235 -25.2895758 25.25779428 -25.25 19.6875 C-25.07993479 14.49200779 -24.89678783 10.00930914 -21.15625 6.046875 C-14.27485188 -0.08654507 -9.2949812 -1.11795307 0 0 Z " fill="#A9A9A9" transform="translate(394,231)"/>
<path d="M0 0 C11.88 0 23.76 0 36 0 C36 2.97 36 5.94 36 9 C35 10 35 10 32.68334961 10.11352539 C31.68311768 10.10828857 30.68288574 10.10305176 29.65234375 10.09765625 C28.57275391 10.09443359 27.49316406 10.09121094 26.38085938 10.08789062 C25.24455078 10.07951172 24.10824219 10.07113281 22.9375 10.0625 C21.79732422 10.05798828 20.65714844 10.05347656 19.48242188 10.04882812 C16.65492582 10.0369976 13.82745655 10.0190615 11 10 C11 14.29 11 18.58 11 23 C17.93 23 24.86 23 32 23 C32 26.3 32 29.6 32 33 C24.74 33 17.48 33 10 33 C10 40.26 10 47.52 10 55 C6.7 55 3.4 55 0 55 C0 36.85 0 18.7 0 0 Z " fill="#A7A7A7" transform="translate(313,212)"/>
<path d="M0 0 C3.3 0 6.6 0 10 0 C10 11.88 10 23.76 10 36 C21.75332962 30.59669467 21.75332962 30.59669467 28 21 C31.63 21 35.26 21 39 21 C38.10782231 25.46088846 37.77033082 26.79020577 35.1875 30.125 C34.68605469 30.78757813 34.18460937 31.45015625 33.66796875 32.1328125 C31.91951042 34.09010309 30.19599277 35.56570046 28 37 C27.34 37 26.68 37 26 37 C27.03060547 38.33804688 27.03060547 38.33804688 28.08203125 39.703125 C28.99220048 40.88540668 29.902356 42.0676989 30.8125 43.25 C31.26431641 43.83652344 31.71613281 44.42304688 32.18164062 45.02734375 C33.06106339 46.16995143 33.93888 47.31379744 34.81494141 48.45898438 C35.80595079 49.74766407 36.81316704 51.02385914 37.82421875 52.296875 C39 54 39 54 39 56 C35.13237922 56.71569057 31.84674858 56.908603 28 56 C23.56772755 52.15142768 19.868433 47.60529901 18 42 C16.8553125 42.495 16.8553125 42.495 15.6875 43 C13 44 13 44 10 44 C10 47.96 10 51.92 10 56 C6.7 56 3.4 56 0 56 C0 37.52 0 19.04 0 0 Z " fill="#A6A6A6" transform="translate(250,211)"/>
<path d="M0 0 C2.97 0 5.94 0 9 0 C9.84384675 1.41042956 10.67469496 2.82864132 11.5 4.25 C11.9640625 5.03890625 12.428125 5.8278125 12.90625 6.640625 C14 9 14 9 14 13 C14.66 13 15.32 13 16 13 C16 13.66 16 14.32 16 15 C16.66 15 17.32 15 18 15 C18.433125 13.6078125 18.433125 13.6078125 18.875 12.1875 C20 9 20 9 22 6 C22.16699232 2.87478167 22.16699232 2.87478167 22 0 C24.64 0 27.28 0 30 0 C31.17154293 2.28929053 32.33738074 4.58118362 33.5 6.875 C33.83386719 7.52597656 34.16773438 8.17695313 34.51171875 8.84765625 C37 13.7734375 37 13.7734375 37 16 C39.72375038 14.63812481 40.03747262 12.77179844 41.13671875 10.0546875 C42.58195622 6.61489154 44.30861567 3.32444507 46 0 C48.97 0 51.94 0 55 0 C54.38392663 4.34493847 52.78967894 7.63347819 50.75 11.5 C47.75645747 17.2835581 45.28034245 23.13367016 43.04296875 29.2578125 C42.15203376 31.60027079 41.16996424 33.78712647 40 36 C37 35 37 35 35.61328125 32.8203125 C35.18402344 31.93085938 34.75476563 31.04140625 34.3125 30.125 C33.87550781 29.24070312 33.43851562 28.35640625 32.98828125 27.4453125 C32 25 32 25 32 22 C31.34 22 30.68 22 30 22 C29.71125 21.030625 29.4225 20.06125 29.125 19.0625 C28.35785318 15.89335797 28.35785318 15.89335797 26 15 C25.61714844 16.25683594 25.61714844 16.25683594 25.2265625 17.5390625 C23.88231082 21.33207838 22.20985807 24.80224791 20.375 28.375 C20.05015625 29.01566406 19.7253125 29.65632813 19.390625 30.31640625 C18.59742593 31.87947501 17.79922969 33.44000622 17 35 C14 34 14 34 12.58959961 31.47143555 C11.87815796 29.82075073 11.87815796 29.82075073 11.15234375 28.13671875 C10.62962891 26.93982422 10.10691406 25.74292969 9.56835938 24.50976562 C9.02439448 23.23582438 8.48077817 21.96173425 7.9375 20.6875 C7.39098009 19.4246943 6.84346525 18.16231868 6.29492188 16.90039062 C5.28503575 14.57478142 4.27991889 12.24709156 3.28100586 9.91674805 C2.52008864 8.1842003 1.71743103 6.46759547 0.83032227 4.79614258 C0 3 0 3 0 0 Z " fill="#A6A6A6" transform="translate(409,232)"/>
<path d="M0 0 C1.485 0.99 1.485 0.99 3 2 C3.53055284 4.74922833 3.82340674 7.22700852 4 10 C4.14888672 11.07701172 4.14888672 11.07701172 4.30078125 12.17578125 C4.86439198 18.39760164 2.60931799 21.84532805 -1.078125 26.73828125 C-2.95395396 28.94581167 -4.91808492 30.98717503 -7 33 C-5.63088196 36.1489715 -4.1247864 38.0478487 -1.5 40.25 C-0.8915625 40.77078125 -0.283125 41.2915625 0.34375 41.828125 C1.93395821 43.19252997 1.93395821 43.19252997 4 43 C4.66 40.36 5.32 37.72 6 35 C6.99 35.495 6.99 35.495 8 36 C8.125 39.375 8.125 39.375 8 43 C6 45 6 45 3.4375 45.5625 C-2.05066972 44.66443586 -6.11599796 40.88400204 -10 37 C-11.74879568 36.89436805 -13.49924318 36.81553635 -15.25 36.75 C-20.6061106 36.34863771 -22.39533746 35.02874049 -26 31 C-28.760165 31.04979584 -28.760165 31.04979584 -31 32 C-30.34 30.68 -29.68 29.36 -29 28 C-28.34 28 -27.68 28 -27 28 C-27.103125 27.05125 -27.20625 26.1025 -27.3125 25.125 C-27.26819265 17.81428676 -22.95329462 11.66920302 -18.0625 6.5625 C-12.25848893 1.19243369 -7.83883853 -0.64252775 0 0 Z " fill="#050607" transform="translate(155,282)"/>
<path d="M0 0 C12.21 0 24.42 0 37 0 C37 2.97 37 5.94 37 9 C36.67 9.33 36.34 9.66 36 10 C31.71 10 27.42 10 23 10 C23 24.85 23 39.7 23 55 C19.7 55 16.4 55 13 55 C13 40.15 13 25.3 13 10 C9.04 10 5.08 10 1 10 C0.67 9.67 0.34 9.34 0 9 C0 6.03 0 3.06 0 0 Z " fill="#A9A9A9" transform="translate(142,212)"/>
<path d="M0 0 C3.3 0 6.6 0 10 0 C10 18.48 10 36.96 10 56 C6.7 56 3.4 56 0 56 C0 37.52 0 19.04 0 0 Z " fill="#A5A5A5" transform="translate(354,211)"/>
<path d="M0 0 C-0.33 1.98 -0.66 3.96 -1 6 C-3.64 6 -6.28 6 -9 6 C-9 7.98 -9 9.96 -9 12 C-8.29875 12.226875 -7.5975 12.45375 -6.875 12.6875 C-3.35719867 14.29345278 -0.20234622 15.75951078 2 19 C2.503859 22.39195799 2.35672302 25.59791939 2 29 C1.34 29 0.68 29 0 29 C-0.2475 29.78375 -0.495 30.5675 -0.75 31.375 C-2 34 -2 34 -3.625 35.3125 C-7.11001285 36.32131951 -10.40382987 36.50847487 -14 36 C-16.5 34.5 -16.5 34.5 -18 33 C-17.67 30.69 -17.34 28.38 -17 26 C-14.03 26.33 -11.06 26.66 -8 27 C-7.67611039 24.63143358 -7.67611039 24.63143358 -8 22 C-9.65369971 20.21157576 -9.65369971 20.21157576 -11.875 18.875 C-14.74936412 16.96905963 -16.03330786 15.95003821 -18 13 C-18.60203459 9.90878395 -18.60109238 7.09210586 -18 4 C-13.14546591 -2.09928642 -7.17481073 -2.39160358 0 0 Z " fill="#A8A8A8" transform="translate(244,232)"/>
<path d="M0 0 C1.485 0.99 1.485 0.99 3 2 C3.53055284 4.74922833 3.82340674 7.22700852 4 10 C4.14888672 11.07701172 4.14888672 11.07701172 4.30078125 12.17578125 C4.86439198 18.39760164 2.60931799 21.84532805 -1.078125 26.73828125 C-2.95395396 28.94581167 -4.91808492 30.98717503 -7 33 C-5.63088196 36.1489715 -4.1247864 38.0478487 -1.5 40.25 C-0.8915625 40.77078125 -0.283125 41.2915625 0.34375 41.828125 C1.93395821 43.19252997 1.93395821 43.19252997 4 43 C4.66 40.36 5.32 37.72 6 35 C6.99 35.495 6.99 35.495 8 36 C8.125 39.375 8.125 39.375 8 43 C6 45 6 45 3.4375 45.5625 C-2.05066972 44.66443586 -6.11599796 40.88400204 -10 37 C-11.74879568 36.89436805 -13.49924318 36.81553635 -15.25 36.75 C-20.6061106 36.34863771 -22.39533746 35.02874049 -26 31 C-28.760165 31.04979584 -28.760165 31.04979584 -31 32 C-30.34 30.68 -29.68 29.36 -29 28 C-28.34 28 -27.68 28 -27 28 C-27.103125 27.05125 -27.20625 26.1025 -27.3125 25.125 C-27.26819265 17.81428676 -22.95329462 11.66920302 -18.0625 6.5625 C-12.25848893 1.19243369 -7.83883853 -0.64252775 0 0 Z M-11 5 C-16.95785352 10.03626833 -21.71231578 15.47257248 -22.75 23.4375 C-22.8325 24.613125 -22.915 25.78875 -23 27 C-21.41800369 27.64910154 -19.83434276 28.29414694 -18.25 28.9375 C-17.36828125 29.29714844 -16.4865625 29.65679687 -15.578125 30.02734375 C-12.35331303 31.26705635 -12.35331303 31.26705635 -9 32 C-3.8481973 28.26494304 -1.60873414 23.0589824 0 17 C0.64001863 10.82963088 0.64001863 10.82963088 -1 5 C-0.34 5 0.32 5 1 5 C1 4.34 1 3.68 1 3 C-4.11522565 1.66029804 -6.5764478 2.11114958 -11 5 Z " fill="#7DA5B2" transform="translate(155,282)"/>
<path d="M0 0 C0.66 0 1.32 0 2 0 C1.23757784 3.61055091 -0.12473374 6.85834625 -1.5625 10.25 C-2.01753906 11.32765625 -2.47257812 12.4053125 -2.94140625 13.515625 C-3.29074219 14.33546875 -3.64007813 15.1553125 -4 16 C-0.90281304 13.16752987 0.95667709 10.53590391 2.75 6.75 C3.17796875 5.85796875 3.6059375 4.9659375 4.046875 4.046875 C4.36140625 3.37140625 4.6759375 2.6959375 5 2 C5.99 2 6.98 2 8 2 C7.52877252 8.9113364 4.79363994 14.72204161 2 21 C2.66 21.33 3.32 21.66 4 22 C3.40316406 22.55429687 2.80632812 23.10859375 2.19140625 23.6796875 C-0.69201368 26.73272036 -2.4952914 30.11094537 -4.53515625 33.7578125 C-6 36 -6 36 -9 38 C-11.1875 37.625 -11.1875 37.625 -13 37 C-11.53515625 35.828125 -10.0703125 34.65625 -8.60546875 33.484375 C-5.03989994 30.18774204 -3.38773549 26.81275108 -1.8125 22.25 C-1.46832031 21.26515625 -1.12414062 20.2803125 -0.76953125 19.265625 C-0.51558594 18.51796875 -0.26164062 17.7703125 0 17 C-2.3431213 17.25561323 -4.67843403 17.59270772 -7 18 C-7.33 18.66 -7.66 19.32 -8 20 C-8.99 20.33 -9.98 20.66 -11 21 C-12.26053974 22.48679046 -13.51848661 23.9764772 -14.734375 25.5 C-16.29832152 27.35356624 -17.94130706 28.72219059 -20 30 C-20.66 30 -21.32 30 -22 30 C-21.88529863 28.24929483 -21.75780972 26.49942464 -21.625 24.75 C-21.55539063 23.77546875 -21.48578125 22.8009375 -21.4140625 21.796875 C-21.01534751 19.10366811 -20.36492937 17.33036721 -19 15 C-18.34 15 -17.68 15 -17 15 C-16.9175 14.113125 -16.835 13.22625 -16.75 12.3125 C-15.88315869 8.48395087 -14.7611973 6.7611973 -12 4 C-9.5625 2.5625 -9.5625 2.5625 -7 2 C-4.1875 2.875 -4.1875 2.875 -2 4 C-1.34 2.68 -0.68 1.36 0 0 Z " fill="#090C0D" transform="translate(238,289)"/>
<path d="M0 0 C3.0625 1.3125 3.0625 1.3125 5 4 C5.996349 9.35228802 5.92142391 13.53148064 3 18.1875 C-1.14460267 20.69153078 -3.19917285 20.60962884 -8 20 C-10.5 18.625 -10.5 18.625 -12 17 C-12 16.34 -12 15.68 -12 15 C-12.66 15 -13.32 15 -14 15 C-14.76585232 6.23524568 -14.76585232 6.23524568 -12.0625 1.875 C-7.90807269 -0.66852693 -4.74684453 -0.87554818 0 0 Z " fill="#060606" transform="translate(206,239)"/>
<path d="M0 0 C3 1.9375 3 1.9375 5 5 C5.83244577 9.42637031 5.49997008 12.90915619 3.625 17 C1.33592068 19.81732839 0.34771059 19.96063654 -3.3125 20.375 C-7 20 -7 20 -9.9375 18.1875 C-12.9463126 13.53751689 -12.87071415 9.39013519 -12 4 C-9.35519238 -0.73861365 -5.03610126 -1.11691751 0 0 Z " fill="#070707" transform="translate(391,239)"/>
<path d="M0 0 C0 4.95 0 9.9 0 15 C-9.9609375 15.29296875 -9.9609375 15.29296875 -13 15 C-15.06520632 11.90219052 -15.29477024 11.0459519 -15.3125 7.5 C-15.32925781 6.7265625 -15.34601563 5.953125 -15.36328125 5.15625 C-15 3 -15 3 -13.8671875 1.23046875 C-9.94801488 -1.35224961 -4.47377827 -0.14431543 0 0 Z " fill="#E4E4E4" transform="translate(347,301)"/>
<path d="M0 0 C0.99 0.33 1.98 0.66 3 1 C2.45859375 2.01320313 2.45859375 2.01320313 1.90625 3.046875 C1.4421875 3.93890625 0.978125 4.8309375 0.5 5.75 C0.0359375 6.63171875 -0.428125 7.5134375 -0.90625 8.421875 C-2.26036656 11.14696472 -2.26036656 11.14696472 -2 15 C-1.67386719 14.4225 -1.34773437 13.845 -1.01171875 13.25 C-0.57472656 12.5075 -0.13773438 11.765 0.3125 11 C0.74175781 10.2575 1.17101562 9.515 1.61328125 8.75 C2.07089844 8.1725 2.52851563 7.595 3 7 C3.99 7 4.98 7 6 7 C6 8.32 6 9.64 6 11 C5.34 11 4.68 11 4 11 C3.67 13.64 3.34 16.28 3 19 C3.928125 18.01 3.928125 18.01 4.875 17 C7 15 7 15 9 15 C9.061875 14.278125 9.12375 13.55625 9.1875 12.8125 C10.25187871 9.12811217 12.1865792 7.53894072 15 5 C15.66 4.34 16.32 3.68 17 3 C22.33333333 2.66666667 22.33333333 2.66666667 25 4 C25 4.66 25 5.32 25 6 C24.278125 5.7525 23.55625 5.505 22.8125 5.25 C19.92265802 4.72640195 19.92265802 4.72640195 17.4375 6.4375 C14.39789826 9.63297876 12.74429395 12.98520051 11 17 C11.66 17.33 12.32 17.66 13 18 C11.88625 17.9071875 11.88625 17.9071875 10.75 17.8125 C7.95181641 17.75270482 7.95181641 17.75270482 6 19.5 C3.50983207 21.36762594 2.03939845 21.2532832 -1 21 C-1.33 20.34 -1.66 19.68 -2 19 C-2.804375 19.185625 -3.60875 19.37125 -4.4375 19.5625 C-5.283125 19.706875 -6.12875 19.85125 -7 20 C-8 19 -8 19 -8.27734375 16.33203125 C-7.94221536 12.30577049 -6.67893422 10.10701042 -4.5625 6.6875 C-3.92441406 5.63949219 -3.28632813 4.59148437 -2.62890625 3.51171875 C-1 1 -1 1 0 0 Z " fill="#658690" transform="translate(169,291)"/>
<path d="M0 0 C0.99 0.66 1.98 1.32 3 2 C3.39019479 6.03201287 3.55180215 8.73410096 1.9375 12.4375 C-1.039264 14.83811613 -3.21309309 15.0652915 -7 15 C-10.00378247 13.01878177 -11.62692582 11.56205855 -12.48046875 7.98828125 C-12.625 5.875 -12.625 5.875 -12 2 C-8.24792474 -1.75207526 -4.92269523 -1.1850933 0 0 Z " fill="#CFCFCF" transform="translate(287,302)"/>
<path d="M0 0 C0.66 0 1.32 0 2 0 C1.23757784 3.61055091 -0.12473374 6.85834625 -1.5625 10.25 C-2.01753906 11.32765625 -2.47257813 12.4053125 -2.94140625 13.515625 C-3.29074219 14.33546875 -3.64007813 15.1553125 -4 16 C-0.90281304 13.16752987 0.95667709 10.53590391 2.75 6.75 C3.17796875 5.85796875 3.6059375 4.9659375 4.046875 4.046875 C4.36140625 3.37140625 4.6759375 2.6959375 5 2 C5.99 2 6.98 2 8 2 C7.52877252 8.9113364 4.79363994 14.72204161 2 21 C2.66 21.33 3.32 21.66 4 22 C3.40316406 22.55429687 2.80632812 23.10859375 2.19140625 23.6796875 C-0.69201368 26.73272036 -2.4952914 30.11094537 -4.53515625 33.7578125 C-6 36 -6 36 -9 38 C-11.1875 37.625 -11.1875 37.625 -13 37 C-11.53515625 35.828125 -10.0703125 34.65625 -8.60546875 33.484375 C-5.03989994 30.18774204 -3.38773549 26.81275108 -1.8125 22.25 C-1.29623047 20.77273438 -1.29623047 20.77273438 -0.76953125 19.265625 C-0.51558594 18.51796875 -0.26164063 17.7703125 0 17 C-0.969375 17.185625 -1.93875 17.37125 -2.9375 17.5625 C-3.948125 17.706875 -4.95875 17.85125 -6 18 C-6.33 17.67 -6.66 17.34 -7 17 C-6.58335431 12.66688485 -5.80210791 8.96463741 -4 5 C-4.66 4.67 -5.32 4.34 -6 4 C-4.68 4 -3.36 4 -2 4 C-1.34 2.68 -0.68 1.36 0 0 Z " fill="#6D8F9A" transform="translate(238,289)"/>
<path d="M0 0 C0.8971875 0.309375 0.8971875 0.309375 1.8125 0.625 C1.28140625 1.06070312 0.7503125 1.49640625 0.203125 1.9453125 C-4.05833897 5.53800657 -7.36884848 8.80980366 -10.1875 13.625 C-5.07077027 10.12277237 -1.28105668 7.03872419 1.8125 1.625 C2.625 3.25 2.625 3.25 2.8125 5.625 C-0.02775765 10.18969979 -3.18953715 12.30838105 -7.8125 15 C-11.53499368 17.25150828 -13.79569471 18.73412157 -15.3125 22.875 C-15.60125 24.1125 -15.89 25.35 -16.1875 26.625 C-16.5175 27.615 -16.8475 28.605 -17.1875 29.625 C-17.8475 29.625 -18.5075 29.625 -19.1875 29.625 C-19.5175 31.605 -19.8475 33.585 -20.1875 35.625 C-20.5175 35.625 -20.8475 35.625 -21.1875 35.625 C-22.3125 28.875 -22.3125 28.875 -21.1875 26.625 C-20.5275 26.625 -19.8675 26.625 -19.1875 26.625 C-18.8575 24.315 -18.5275 22.005 -18.1875 19.625 C-19.1775 19.625 -20.1675 19.625 -21.1875 19.625 C-21.5896875 20.9553125 -21.5896875 20.9553125 -22 22.3125 C-23.10460819 25.39377548 -24.41599144 27.88721405 -26.1875 30.625 C-27.57941814 26.44924557 -27.00897922 24.6182429 -25.1875 20.625 C-23.2578125 19.59765625 -23.2578125 19.59765625 -20.9375 18.75 C-15.12230681 16.58794099 -13.24570496 12.76956053 -10.1875 7.625 C-4.0180557 -0.68880955 -4.0180557 -0.68880955 0 0 Z " fill="#6C8F9A" transform="translate(213.1875,279.375)"/>
<path d="M0 0 C1.32 0 2.64 0 4 0 C4.33 3.63 4.66 7.26 5 11 C5.99 11 6.98 11 8 11 C8.33 7.37 8.66 3.74 9 0 C10.65 0 12.3 0 14 0 C14 4.95 14 9.9 14 15 C12.02 15 10.04 15 8 15 C6.6696875 15.3403125 6.6696875 15.3403125 5.3125 15.6875 C3 16 3 16 1.3671875 14.9375 C-0.65121644 12.07713328 -0.29002316 9.76411295 -0.1875 6.3125 C-0.16042969 5.13300781 -0.13335937 3.95351563 -0.10546875 2.73828125 C-0.07066406 1.83464844 -0.03585937 0.93101562 0 0 Z " fill="#BFBFBF" transform="translate(400,301)"/>
<path d="M0 0 C-1.33333333 2.66666667 -2.66666667 5.33333333 -4 8 C-2.35 8.33 -0.7 8.66 1 9 C1 9.33 1 9.66 1 10 C-1.31 10.33 -3.62 10.66 -6 11 C-6.66 12.98 -7.32 14.96 -8 17 C-8.66 17 -9.32 17 -10 17 C-10.99 21.95 -11.98 26.9 -13 32 C-11.576875 30.9275 -10.15375 29.855 -8.6875 28.75 C-7.88699219 28.14671875 -7.08648437 27.5434375 -6.26171875 26.921875 C-3.94178171 25.09547804 -3.94178171 25.09547804 -2.33203125 22.765625 C-1.89246094 22.18296875 -1.45289063 21.6003125 -1 21 C-0.34 21 0.32 21 1 21 C-0.38463944 24.12749407 -1.99522423 26.2404985 -4.4375 28.625 C-5.03433594 29.21539062 -5.63117188 29.80578125 -6.24609375 30.4140625 C-8 32 -8 32 -11 34 C-13.6875 33.625 -13.6875 33.625 -16 33 C-15.50387003 24.89654389 -12.679915 17.59474067 -10 10 C-12.31 10.33 -14.62 10.66 -17 11 C-16.67 10.01 -16.34 9.02 -16 8 C-13.36 8.33 -10.72 8.66 -8 9 C-7.7525 8.2575 -7.505 7.515 -7.25 6.75 C-5.75805674 3.46772483 -3.93296349 0 0 0 Z " fill="#7EA6B3" transform="translate(229,287)"/>
<path d="M0 0 C1.32 0 2.64 0 4 0 C4.33 3.63 4.66 7.26 5 11 C6.32 11 7.64 11 9 11 C9.33 7.37 9.66 3.74 10 0 C11.32 0 12.64 0 14 0 C14 4.95 14 9.9 14 15 C12.4325 15.2475 10.865 15.495 9.25 15.75 C7.92742187 15.95882813 7.92742187 15.95882813 6.578125 16.171875 C4 16 4 16 1.6875 14.40625 C-0.48054914 11.31477252 -0.41250613 9.48764106 -0.25 5.75 C-0.21390625 4.67234375 -0.1778125 3.5946875 -0.140625 2.484375 C-0.09421875 1.66453125 -0.0478125 0.8446875 0 0 Z " fill="#E0E0E0" transform="translate(292,301)"/>
<path d="M0 0 C3.70543535 0.31943408 5.1286282 0.61641846 7.625 3.3125 C7.625 4.3025 7.625 5.2925 7.625 6.3125 C6.305 6.3125 4.985 6.3125 3.625 6.3125 C3.295 5.6525 2.965 4.9925 2.625 4.3125 C0.60036745 3.66036708 0.60036745 3.66036708 -1.375 3.3125 C-1.375 4.3025 -1.375 5.2925 -1.375 6.3125 C-0.446875 6.43625 0.48125 6.56 1.4375 6.6875 C4.625 7.3125 4.625 7.3125 7.625 9.3125 C7.3125 11.6875 7.3125 11.6875 6.625 14.3125 C3.625 16.3125 3.625 16.3125 0.0625 16.0625 C-3.375 15.3125 -3.375 15.3125 -5.375 13.3125 C-5.375 12.3225 -5.375 11.3325 -5.375 10.3125 C-4.055 10.3125 -2.735 10.3125 -1.375 10.3125 C-1.375 10.9725 -1.375 11.6325 -1.375 12.3125 C0.275 12.3125 1.925 12.3125 3.625 12.3125 C3.625 11.6525 3.625 10.9925 3.625 10.3125 C0.655 9.3225 -2.315 8.3325 -5.375 7.3125 C-5.5 4.9375 -5.5 4.9375 -5.375 2.3125 C-3.375 0.3125 -3.375 0.3125 0 0 Z " fill="#E5E5E5" transform="translate(421.375,300.6875)"/>
<path d="M0 0 C0.99 0 1.98 0 3 0 C3 0.66 3 1.32 3 2 C3.99 1.34 4.98 0.68 6 0 C9.75698557 -0.37569856 10.75366476 -0.1642235 14 2 C14.29296875 5.0390625 14.29296875 5.0390625 14.1875 8.625 C14.16042969 9.81351562 14.13335937 11.00203125 14.10546875 12.2265625 C14.07066406 13.14179688 14.03585937 14.05703125 14 15 C12.68 15 11.36 15 10 15 C9.67 11.7 9.34 8.4 9 5 C7.68 5 6.36 5 5 5 C4.67 8.3 4.34 11.6 4 15 C2.68 15 1.36 15 0 15 C0 10.05 0 5.1 0 0 Z " fill="#DFDFDF" transform="translate(349,301)"/>
<path d="M0 0 C1.65 0 3.3 0 5 0 C5.45375 0.969375 5.9075 1.93875 6.375 2.9375 C7.65786221 6.07079582 7.65786221 6.07079582 10 7 C10.66 4.69 11.32 2.38 12 0 C13.65 0 15.3 0 17 0 C16.57847656 0.7734375 16.15695312 1.546875 15.72265625 2.34375 C12.56633682 8.34447023 10.26182321 13.19259653 10 20 C8.68 20 7.36 20 6 20 C5.938125 18.700625 5.87625 17.40125 5.8125 16.0625 C5.31094133 11.25969572 3.58692832 7.90874889 1.05859375 3.84765625 C0 2 0 2 0 0 Z " fill="#E3E3E3" transform="translate(259,296)"/>
<path d="M0 0 C4.12751449 0.60698743 7.3321148 2.03810791 11 4 C11 4.66 11 5.32 11 6 C11.99 6 12.98 6 14 6 C13.67 5.01 13.34 4.02 13 3 C15.375 1.4375 15.375 1.4375 18 0 C18.66 0.33 19.32 0.66 20 1 C19.01 1.99 18.02 2.98 17 4 C18.36911804 7.1489715 19.8752136 9.0478487 22.5 11.25 C23.41265625 12.03117187 23.41265625 12.03117187 24.34375 12.828125 C25.93395821 14.19252997 25.93395821 14.19252997 28 14 C28.66 11.36 29.32 8.72 30 6 C30.66 6.33 31.32 6.66 32 7 C32.125 10.375 32.125 10.375 32 14 C30 16 30 16 27.4375 16.5625 C21.94933028 15.66443586 17.88400204 11.88400204 14 8 C11.22441577 7.71520878 8.44872155 7.55156981 5.6640625 7.37890625 C3 7 3 7 0 5 C-0.1875 2.375 -0.1875 2.375 0 0 Z " fill="#7398A4" transform="translate(131,311)"/>
<path d="M0 0 C2 2 2 2 2 5 C-0.97 4.67 -3.94 4.34 -7 4 C-7 5.98 -7 7.96 -7 10 C-5.68 10 -4.36 10 -3 10 C-2.67 9.34 -2.34 8.68 -2 8 C-0.68 8 0.64 8 2 8 C1.51812367 12.57782516 1.51812367 12.57782516 -0.6875 14.375 C-4.43354965 15.38744585 -7.50896763 14.84491834 -10.875 12.9375 C-12.72876552 9.74490383 -12.74231244 6.52068184 -12 3 C-8.35559195 -1.52790091 -5.42268701 -1.43240789 0 0 Z " fill="#DCDCDC" transform="translate(328,302)"/>
<path d="M0 0 C5.28 0 10.56 0 16 0 C16 0.99 16 1.98 16 3 C14.02 3 12.04 3 10 3 C10 8.61 10 14.22 10 20 C8.68 20 7.36 20 6 20 C6 14.39 6 8.78 6 3 C4.02 3 2.04 3 0 3 C0 2.01 0 1.02 0 0 Z " fill="#EEEEEE" transform="translate(372,296)"/>
<path d="M0 0 C0.66 0.33 1.32 0.66 2 1 C2.48400905 3.71045066 2.78687692 6.26646487 3 9 C3.10054687 9.71929687 3.20109375 10.43859375 3.3046875 11.1796875 C3.94414973 18.36724299 0.41279033 22.60784039 -4 28 C-4.99 27.67 -5.98 27.34 -7 27 C-6.72285156 26.45730469 -6.44570312 25.91460937 -6.16015625 25.35546875 C-5.79792969 24.64003906 -5.43570313 23.92460937 -5.0625 23.1875 C-4.52302734 22.12595703 -4.52302734 22.12595703 -3.97265625 21.04296875 C-2.27085338 17.46849926 -1.8867068 14.72357651 -1.9375 10.8125 C-1.94652344 9.91144531 -1.95554688 9.01039063 -1.96484375 8.08203125 C-1.97644531 7.39496094 -1.98804688 6.70789063 -2 6 C-3.98 5.34 -5.96 4.68 -8 4 C-8 3.67 -8 3.34 -8 3 C-2.25 2.875 -2.25 2.875 0 4 C0 3.34 0 2.68 0 2 C-0.66 1.67 -1.32 1.34 -2 1 C-1.34 0.67 -0.68 0.34 0 0 Z " fill="#64848E" transform="translate(156,283)"/>
<path d="M0 0 C0.66 0 1.32 0 2 0 C2 4.62 2 9.24 2 14 C-7.1796875 14.29296875 -7.1796875 14.29296875 -10 14 C-12.13586678 10.79619983 -12.23132175 9.98060033 -12.125 6.3125 C-12.10695313 5.50425781 -12.08890625 4.69601562 -12.0703125 3.86328125 C-12.04710937 3.24839844 -12.02390625 2.63351562 -12 2 C-8.39345961 4.40436026 -8.14547068 5.94679607 -7 10 C-5.68 10 -4.36 10 -3 10 C-2.67 7.36 -2.34 4.72 -2 2 C-1.34 2 -0.68 2 0 2 C0 1.34 0 0.68 0 0 Z " fill="#D7D7D7" transform="translate(344,302)"/>
<path d="M0 0 C0.33 0.66 0.66 1.32 1 2 C0.1646875 2.09474609 0.1646875 2.09474609 -0.6875 2.19140625 C-7.43879894 3.27480726 -11.47502453 5.91432104 -16 11 C-17.85290512 13.57697727 -19.49180802 16.20839466 -21 19 C-21.99 18.67 -22.98 18.34 -24 18 C-23.09274481 11.3850761 -19.0449305 7.52328902 -14.0390625 3.375 C-9.22280141 0.0245575 -5.81327617 -0.51904252 0 0 Z " fill="#7FA7B4" transform="translate(155,282)"/>
<path d="M0 0 C0.99 0 1.98 0 3 0 C3 0.99 3 1.98 3 3 C3.99 3 4.98 3 6 3 C6 3.99 6 4.98 6 6 C5.01 6 4.02 6 3 6 C3 8.97 3 11.94 3 15 C3.99 15 4.98 15 6 15 C6 15.99 6 16.98 6 18 C4.00045254 18.04254356 1.99958364 18.04080783 0 18 C-1 17 -1 17 -1.09765625 14.49609375 C-1.08605469 13.48675781 -1.07445312 12.47742188 -1.0625 11.4375 C-1.05347656 10.42558594 -1.04445313 9.41367187 -1.03515625 8.37109375 C-1.02355469 7.58863281 -1.01195312 6.80617188 -1 6 C-1.66 6 -2.32 6 -3 6 C-3 5.01 -3 4.02 -3 3 C-2.01 3 -1.02 3 0 3 C0 2.01 0 1.02 0 0 Z " fill="#E5E5E5" transform="translate(433,298)"/>
<path d="M0 0 C2.475 0.495 2.475 0.495 5 1 C7.72502965 0.62277985 7.72502965 0.62277985 10 0 C9.67 1.65 9.34 3.3 9 5 C7.68 5.33 6.36 5.66 5 6 C4.67 8.97 4.34 11.94 4 15 C2.68 15 1.36 15 0 15 C0 10.05 0 5.1 0 0 Z " fill="#D5D5D5" transform="translate(388,301)"/>
<path d="M0 0 C2 2 2 2 2.125 5.125 C2.08375 6.07375 2.0425 7.0225 2 8 C1.01 8.495 1.01 8.495 0 9 C0 8.01 0 7.02 0 6 C-1.32 6 -2.64 6 -4 6 C-4.33 6.99 -4.66 7.98 -5 9 C-6.65 8.67 -8.3 8.34 -10 8 C-10.04254356 6.00045254 -10.04080783 3.99958364 -10 2 C-9 1 -9 1 -6.6875 0.8125 C-3.9220797 1.0054363 -2.35954949 1.60174845 0 3 C0 2.01 0 1.02 0 0 Z " fill="#212121" transform="translate(330,304)"/>
<path d="M0 0 C0.66 0 1.32 0 2 0 C1.01 2.97 0.02 5.94 -1 9 C-0.34 9.33 0.32 9.66 1 10 C0.40316406 10.55429687 -0.19367188 11.10859375 -0.80859375 11.6796875 C-3.69201368 14.73272036 -5.4952914 18.11094537 -7.53515625 21.7578125 C-9 24 -9 24 -12 26 C-14.1875 25.625 -14.1875 25.625 -16 25 C-14.53515625 23.828125 -13.0703125 22.65625 -11.60546875 21.484375 C-8.32159536 18.44819035 -6.55550948 15.28598787 -5 11.125 C-3.52247507 7.28343517 -1.91596213 3.64032805 0 0 Z " fill="#7CA3B0" transform="translate(241,301)"/>
<path d="M0 0 C0.33 0 0.66 0 1 0 C1.66 1.98 2.32 3.96 3 6 C4.65 6 6.3 6 8 6 C8.66 4.02 9.32 2.04 10 0 C10.66 0 11.32 0 12 0 C12.42940617 5.23875527 12.42940617 5.23875527 12 8 C9.875 10.0625 9.875 10.0625 7 11 C3.29971764 10.78233633 1.64508959 10.64508959 -1 8 C-1.1875 4.4375 -1.1875 4.4375 -1 1 C-0.67 0.67 -0.34 0.34 0 0 Z " fill="#ECECEC" transform="translate(277,306)"/>
<path d="M0 0 C-1.33333333 2.66666667 -2.66666667 5.33333333 -4 8 C-2.35 8.33 -0.7 8.66 1 9 C1 9.33 1 9.66 1 10 C-1.31 10.33 -3.62 10.66 -6 11 C-6.66 12.98 -7.32 14.96 -8 17 C-8.33 16.01 -8.66 15.02 -9 14 C-9.66 14 -10.32 14 -11 14 C-10.67 12.68 -10.34 11.36 -10 10 C-12.31 10.33 -14.62 10.66 -17 11 C-16.67 10.01 -16.34 9.02 -16 8 C-13.36 8.33 -10.72 8.66 -8 9 C-7.7525 8.2575 -7.505 7.515 -7.25 6.75 C-5.75805674 3.46772483 -3.93296349 0 0 0 Z " fill="#7DA5B1" transform="translate(229,287)"/>
<path d="M0 0 C1.32 0 2.64 0 4 0 C3.10485074 6.13244043 2.13348884 10.02154615 -3 14 C-3.66 14 -4.32 14 -5 14 C-5.29162929 9.04230204 -5.12940055 5.97193147 -2 2 C-1.34 2 -0.68 2 0 2 C0 1.34 0 0.68 0 0 Z " fill="#0F1416" transform="translate(215,297)"/>
<path d="M0 0 C0.734375 1.70703125 0.734375 1.70703125 1 4 C-0.546875 6.32421875 -0.546875 6.32421875 -2.75 8.6875 C-3.46671875 9.47511719 -4.1834375 10.26273437 -4.921875 11.07421875 C-7 13 -7 13 -10 14 C-10.5 11.4375 -10.5 11.4375 -10 8 C-7.14049026 4.78794796 -3.85951732 1.92975866 0 0 Z " fill="#59767F" transform="translate(234,313)"/>
<path d="M0 0 C0.66 0.33 1.32 0.66 2 1 C2 1.66 2 2.32 2 3 C1.278125 2.7525 0.55625 2.505 -0.1875 2.25 C-3.07734198 1.72640195 -3.07734198 1.72640195 -5.5625 3.4375 C-8.60210174 6.63297876 -10.25570605 9.98520051 -12 14 C-11.34 14.33 -10.68 14.66 -10 15 C-11.32 15 -12.64 15 -14 15 C-15.16613159 11.50160524 -14.6074151 10.05922732 -13.078125 6.78515625 C-9.99021737 1.67220774 -6.09888484 -0.83166611 0 0 Z " fill="#769BA7" transform="translate(192,294)"/>
<path d="M0 0 C1.32 0 2.64 0 4 0 C4 4.95 4 9.9 4 15 C3.01 15 2.02 15 1 15 C-0.09506492 11.71480525 -0.09960608 9.26336585 -0.0625 5.8125 C-0.05347656 4.72582031 -0.04445313 3.63914062 -0.03515625 2.51953125 C-0.02355469 1.68808594 -0.01195312 0.85664063 0 0 Z " fill="#EAEAEA" transform="translate(302,301)"/>
<path d="M0 0 C0.33 0.99 0.66 1.98 1 3 C1.66 3 2.32 3 3 3 C3 6.63 3 10.26 3 14 C2.01 13.67 1.02 13.34 0 13 C-0.14308594 12.35546875 -0.28617187 11.7109375 -0.43359375 11.046875 C-0.78642566 8.8333752 -0.78642566 8.8333752 -2.84765625 7.953125 C-3.94400391 7.60507812 -3.94400391 7.60507812 -5.0625 7.25 C-5.79597656 7.00765625 -6.52945312 6.7653125 -7.28515625 6.515625 C-7.85105469 6.34546875 -8.41695313 6.1753125 -9 6 C-9 5.01 -9 4.02 -9 3 C-6.525 3.495 -6.525 3.495 -4 4 C-4 4.66 -4 5.32 -4 6 C-2.68 6 -1.36 6 0 6 C-0.185625 5.38125 -0.37125 4.7625 -0.5625 4.125 C-1 2 -1 2 0 0 Z " fill="#212121" transform="translate(429,301)"/>
<path d="M0 0 C0.66 0.33 1.32 0.66 2 1 C1.6875 3.375 1.6875 3.375 1 6 C-2 8 -2 8 -5.5625 7.75 C-9 7 -9 7 -11 5 C-11 4.01 -11 3.02 -11 2 C-9.68 2 -8.36 2 -7 2 C-7 2.66 -7 3.32 -7 4 C-5.35 4 -3.7 4 -2 4 C-1.34 2.68 -0.68 1.36 0 0 Z " fill="#D5D5D5" transform="translate(427,309)"/>
<path d="M0 0 C2.625 0.9375 2.625 0.9375 5 2 C4.01 2.66 3.02 3.32 2 4 C-0.28244305 6.22538197 -2.51531548 8.47941292 -4.6875 10.8125 C-6 12 -6 12 -8 12 C-7.55396127 6.94489444 -5.35299176 4.59833262 -2 1 C-1.34 0.67 -0.68 0.34 0 0 Z " fill="#111719" transform="translate(189,295)"/>
<path d="M0 0 C0.66 0.33 1.32 0.66 2 1 C1.67 2.32 1.34 3.64 1 5 C0.34 5 -0.32 5 -1 5 C-2.2469611 6.47666446 -3.49054718 7.95667833 -4.69921875 9.46484375 C-6.27875759 11.32898418 -7.92529778 12.71225379 -10 14 C-10.66 14 -11.32 14 -12 14 C-10.66445565 10.02119078 -9.01381696 7.65301487 -6 4.75 C-4.948125 3.72132813 -4.948125 3.72132813 -3.875 2.671875 C-2 1 -2 1 0 0 Z " fill="#192123" transform="translate(215,279)"/>
<path d="M0 0 C2.5 0.125 2.5 0.125 3.5 1.125 C3.625 4.125 3.625 4.125 3.5 7.125 C2.5 8.125 2.5 8.125 0 8.25 C-2.5 8.125 -2.5 8.125 -3.5 7.125 C-3.625 4.125 -3.625 4.125 -3.5 1.125 C-2.5 0.125 -2.5 0.125 0 0 Z " fill="#1A1A1A" transform="translate(282.5,304.875)"/>
<path d="M0 0 C3.4375 0.75 3.4375 0.75 5.4375 2.75 C5.4375 3.74 5.4375 4.73 5.4375 5.75 C4.83421875 5.66621094 4.2309375 5.58242188 3.609375 5.49609375 C2.41054688 5.34333984 2.41054688 5.34333984 1.1875 5.1875 C0.39859375 5.08308594 -0.3903125 4.97867187 -1.203125 4.87109375 C-3.56782874 4.74972651 -5.3136037 5.05366743 -7.5625 5.75 C-7.25 3.875 -7.25 3.875 -6.5625 1.75 C-3.5625 -0.25 -3.5625 -0.25 0 0 Z " fill="#E8E8E8" transform="translate(324.5625,301.25)"/>
<path d="M0 0 C-0.66701703 3.52448507 -2.10357831 6.18300138 -3.9375 9.25 C-4.46214844 10.14203125 -4.98679688 11.0340625 -5.52734375 11.953125 C-6.01332031 12.62859375 -6.49929687 13.3040625 -7 14 C-7.66 14 -8.32 14 -9 14 C-7.92463344 9.11949023 -6.98693694 5.10703829 -4 1 C-2 0 -2 0 0 0 Z " fill="#0A0D0E" transform="translate(243,291)"/>
<path d="M0 0 C0.66 0 1.32 0 2 0 C1.29445932 3.66881155 -0.27735506 6.70450534 -2 10 C-2.66 10 -3.32 10 -4 10 C-4.33 12.31 -4.66 14.62 -5 17 C-4.34 17.33 -3.68 17.66 -3 18 C-4.32 17.67 -5.64 17.34 -7 17 C-6.49202991 12.6822542 -5.80317221 8.96697886 -4 5 C-4.66 4.67 -5.32 4.34 -6 4 C-4.68 4 -3.36 4 -2 4 C-1.34 2.68 -0.68 1.36 0 0 Z " fill="#6A8C97" transform="translate(238,289)"/>
<path d="M0 0 C2 2 2 2 2.125 4.625 C2.08375 5.40875 2.0425 6.1925 2 7 C4.97 7.99 7.94 8.98 11 10 C11 10.66 11 11.32 11 12 C9.35 12 7.7 12 6 12 C6 11.34 6 10.68 6 10 C4.68 10 3.36 10 2 10 C1.67 11.65 1.34 13.3 1 15 C0.67 15 0.34 15 0 15 C0 10.05 0 5.1 0 0 Z " fill="#242424" transform="translate(414,301)"/>
<path d="M0 0 C0.66 0.33 1.32 0.66 2 1 C2.125 4.375 2.125 4.375 2 8 C0 10 0 10 -2.6875 10.4375 C-7.11452842 9.85279813 -9.62419165 7.79652763 -13 5 C-12.01 4.34 -11.02 3.68 -10 3 C-7.75390625 4.953125 -7.75390625 4.953125 -5.5078125 6.90625 C-4.04063579 8.19572458 -4.04063579 8.19572458 -2 8 C-1.34 5.36 -0.68 2.72 0 0 Z " fill="#7296A2" transform="translate(161,317)"/>
<path d="M0 0 C1.2065625 0.0309375 1.2065625 0.0309375 2.4375 0.0625 C2.4375 2.3725 2.4375 4.6825 2.4375 7.0625 C0.78135343 7.44468767 -0.88707024 7.77645102 -2.5625 8.0625 C-3.5625 7.0625 -3.5625 7.0625 -3.6875 4.0625 C-3.52180824 0.08589776 -3.52180824 0.08589776 0 0 Z " fill="#1E1E1E" transform="translate(339.5625,304.9375)"/>
<path d="M0 0 C0.99 0 1.98 0 3 0 C3 4.95 3 9.9 3 15 C2.01 15 1.02 15 0 15 C0 10.05 0 5.1 0 0 Z " fill="#F1F1F1" transform="translate(349,301)"/>
<path d="M0 0 C0.8971875 0.309375 0.8971875 0.309375 1.8125 0.625 C1.26980469 1.08390625 0.72710937 1.5428125 0.16796875 2.015625 C-0.54746094 2.62921875 -1.26289063 3.2428125 -2 3.875 C-2.70769531 4.47828125 -3.41539062 5.0815625 -4.14453125 5.703125 C-7.09366839 8.47745669 -8.90238672 10.76966017 -10.1875 14.625 C-10.8475 14.295 -11.5075 13.965 -12.1875 13.625 C-12.1875 9.88305947 -11.17108659 8.9480581 -8.875 6.0625 C-8.26011719 5.27746094 -7.64523438 4.49242187 -7.01171875 3.68359375 C-3.25329752 -0.55770815 -3.25329752 -0.55770815 0 0 Z " fill="#6C8E99" transform="translate(213.1875,279.375)"/>
<path d="M0 0 C1.65 0 3.3 0 5 0 C5.45375 0.969375 5.9075 1.93875 6.375 2.9375 C7.65786221 6.07079582 7.65786221 6.07079582 10 7 C10 7.66 10 8.32 10 9 C8.02 9 6.04 9 4 9 C0 2.25 0 2.25 0 0 Z " fill="#BBBBBB" transform="translate(259,296)"/>
<path d="M0 0 C0.66 0 1.32 0 2 0 C2 4.62 2 9.24 2 14 C1.34 14 0.68 14 0 14 C0 13.34 0 12.68 0 12 C-0.66 11.67 -1.32 11.34 -2 11 C-2 8.03 -2 5.06 -2 2 C-1.34 2 -0.68 2 0 2 C0 1.34 0 0.68 0 0 Z " fill="#F8F8F8" transform="translate(344,302)"/>
<path d="M0 0 C0.99 0 1.98 0 3 0 C2.67 2.31 2.34 4.62 2 7 C1.34 7 0.68 7 0 7 C-0.28875 7.639375 -0.5775 8.27875 -0.875 8.9375 C-2 11 -2 11 -4 12 C-3.45660208 7.43545749 -2.20536179 4.0271824 0 0 Z " fill="#161D1F" transform="translate(192,299)"/>
<path d="M0 0 C0.99 0 1.98 0 3 0 C3 4.62 3 9.24 3 14 C2.34 14 1.68 14 1 14 C-0.04976964 10.85069107 -0.10131595 8.61185544 -0.0625 5.3125 C-0.05347656 4.31863281 -0.04445313 3.32476562 -0.03515625 2.30078125 C-0.02355469 1.54152344 -0.01195312 0.78226562 0 0 Z " fill="#F9F9F9" transform="translate(410,302)"/>
<path d="M0 0 C0.66 0 1.32 0 2 0 C3.04976964 3.14930893 3.10131595 5.38814456 3.0625 8.6875 C3.05347656 9.68136719 3.04445313 10.67523438 3.03515625 11.69921875 C3.02355469 12.45847656 3.01195312 13.21773438 3 14 C2.01 14 1.02 14 0 14 C0 9.38 0 4.76 0 0 Z " fill="#F2F2F2" transform="translate(389,302)"/>
<path d="M0 0 C1.9375 0.6875 1.9375 0.6875 4 2 C4.75 4.625 4.75 4.625 5 7 C4.01 7.495 4.01 7.495 3 8 C3 7.34 3 6.68 3 6 C0.36 5.67 -2.28 5.34 -5 5 C-3 2 -3 2 0 0 Z " fill="#171F21" transform="translate(229,291)"/>
<path d="M0 0 C0.99 0 1.98 0 3 0 C3.08167446 1.41569064 3.13949698 2.83276805 3.1875 4.25 C3.22230469 5.03890625 3.25710938 5.8278125 3.29296875 6.640625 C3 9 3 9 0 13 C0 8.71 0 4.42 0 0 Z " fill="#EDEDED" transform="translate(400,301)"/>
<path d="M0 0 C0.8971875 0.309375 0.8971875 0.309375 1.8125 0.625 C0.8225 0.625 -0.1675 0.625 -1.1875 0.625 C-1.455625 1.511875 -1.72375 2.39875 -2 3.3125 C-3.10460819 6.39377548 -4.41599144 8.88721405 -6.1875 11.625 C-7.51926248 7.62971255 -6.60620859 5.52644863 -5.1875 1.625 C-2.1875 -0.375 -2.1875 -0.375 0 0 Z " fill="#81AAB7" transform="translate(193.1875,298.375)"/>
<path d="M0 0 C1.125 3.75 1.125 3.75 0 6 C0.61875 5.38125 1.2375 4.7625 1.875 4.125 C3.25 2.75 4.625 1.375 6 0 C6.6875 1.75 6.6875 1.75 7 4 C5.5625 6.25 5.5625 6.25 4 8 C2.35 7.67 0.7 7.34 -1 7 C-0.67 4.69 -0.34 2.38 0 0 Z " fill="#455B62" transform="translate(234,299)"/>
<path d="M0 0 C-1.30613942 3.91841827 -2.83129848 6.32640809 -6 9 C-6.66 9 -7.32 9 -8 9 C-7.70100785 5.41209425 -7.23013399 4.21833224 -4.5625 1.6875 C-2 0 -2 0 0 0 Z " fill="#0F1416" transform="translate(234,316)"/>
<path d="M0 0 C5.53846154 0.61538462 5.53846154 0.61538462 7.875 2.5625 C8.431875 3.2740625 8.431875 3.2740625 9 4 C8 5 8 5 5.625 5.25 C3 5 3 5 1.1875 3.625 C0 2 0 2 0 0 Z " fill="#080B0B" transform="translate(132,312)"/>
<path d="M0 0 C4.75 0.75 4.75 0.75 7 3 C7 3.99 7 4.98 7 6 C5.68 6 4.36 6 3 6 C2.67 5.34 2.34 4.68 2 4 C1.01 3.67 0.02 3.34 -1 3 C-0.67 2.01 -0.34 1.02 0 0 Z " fill="#DDDDDD" transform="translate(422,301)"/>
<path d="M0 0 C0.99 0 1.98 0 3 0 C3 2.97 3 5.94 3 9 C1.68 8.67 0.36 8.34 -1 8 C-1.125 2.25 -1.125 2.25 0 0 Z " fill="#6F929D" transform="translate(162,302)"/>
<path d="M0 0 C0.1953125 6.0546875 0.1953125 6.0546875 0 8 C-0.66 8.66 -1.32 9.32 -2 10 C-2 8.35 -2 6.7 -2 5 C-2.66 6.98 -3.32 8.96 -4 11 C-4.33 11 -4.66 11 -5 11 C-5.49095023 4.61764706 -5.49095023 4.61764706 -3.0625 1.5625 C-1 0 -1 0 0 0 Z " fill="#557079" transform="translate(133,299)"/>
<path d="M0 0 C0.33 0.66 0.66 1.32 1 2 C-2.96 2.66 -6.92 3.32 -11 4 C-10.67 3.01 -10.34 2.02 -10 1 C-6.78548731 -0.60725635 -3.56387464 -0.05748185 0 0 Z " fill="#84AEBC" transform="translate(155,282)"/>
<path d="M0 0 C0.66 0.99 1.32 1.98 2 3 C-1.17320782 6.53586014 -3.16743695 8.58578031 -8 9 C-6.8553125 7.88625 -6.8553125 7.88625 -5.6875 6.75 C-3.5606298 4.5736677 -1.7440044 2.47832204 0 0 Z " fill="#759AA6" transform="translate(233,318)"/>
<path d="M0 0 C0.99 0.33 1.98 0.66 3 1 C2.34 1 1.68 1 1 1 C2.15684329 3.0995533 2.15684329 3.0995533 4 5 C6.85291355 5.34791629 8.4254716 5.2872642 11 4 C11 4.66 11 5.32 11 6 C11.66 6.33 12.32 6.66 13 7 C11.39620659 7.05416188 9.79188594 7.09286638 8.1875 7.125 C7.29417969 7.14820313 6.40085938 7.17140625 5.48046875 7.1953125 C3 7 3 7 0 5 C-0.1875 2.375 -0.1875 2.375 0 0 Z " fill="#607F89" transform="translate(131,311)"/>
<path d="M0 0 C0.66 0 1.32 0 2 0 C1.01 3.96 0.02 7.92 -1 12 C-1.33 12 -1.66 12 -2 12 C-3.125 5.25 -3.125 5.25 -2 3 C-1.34 3 -0.68 3 0 3 C0 2.01 0 1.02 0 0 Z " fill="#79A0AC" transform="translate(194,303)"/>
<path d="M0 0 C0.66 0 1.32 0 2 0 C0.59155282 3.21524305 -1.10344786 5.32183868 -3.625 7.75 C-4.57246094 8.67039062 -4.57246094 8.67039062 -5.5390625 9.609375 C-6.02117187 10.06828125 -6.50328125 10.5271875 -7 11 C-7.66 10.34 -8.32 9.68 -9 9 C-7.6078125 7.88625 -7.6078125 7.88625 -6.1875 6.75 C-3.71061648 4.70438561 -1.913529 2.58326416 0 0 Z " fill="#59757E" transform="translate(228,308)"/>
<path d="M0 0 C0.33 0.99 0.66 1.98 1 3 C-0.1196986 4.00593243 -1.2459412 5.0045849 -2.375 6 C-3.00148437 6.556875 -3.62796875 7.11375 -4.2734375 7.6875 C-6 9 -6 9 -8 9 C-7.8125 7.1875 -7.8125 7.1875 -7 5 C-4.5625 3.375 -4.5625 3.375 -2 2 C-1.34 1.34 -0.68 0.68 0 0 Z " fill="#12181A" transform="translate(211,284)"/>
<path d="M0 0 C1.65 0 3.3 0 5 0 C5 4.95 5 9.9 5 15 C4.67 15 4.34 15 4 15 C4 10.38 4 5.76 4 1 C3.34 1 2.68 1 2 1 C2 1.66 2 2.32 2 3 C1.01 2.67 0.02 2.34 -1 2 C-0.67 1.34 -0.34 0.68 0 0 Z " fill="#AAAAAA" transform="translate(342,301)"/>
<path d="M0 0 C0.99 0.33 1.98 0.66 3 1 C0.525 5.455 0.525 5.455 -2 10 C-3.39195915 5.82412255 -1.82323219 3.86525224 0 0 Z " fill="#82ACB9" transform="translate(237,310)"/>
<path d="M0 0 C0.33 0 0.66 0 1 0 C1 1.65 1 3.3 1 5 C2.98 3.35 4.96 1.7 7 0 C6.34 2.97 5.68 5.94 5 9 C4.67 8.01 4.34 7.02 4 6 C2.68 6 1.36 6 0 6 C0 4.02 0 2.04 0 0 Z " fill="#435960" transform="translate(209,306)"/>
<path d="M0 0 C0.66 0 1.32 0 2 0 C2 2.97 2 5.94 2 9 C1.01 9 0.02 9 -1 9 C-0.67 6.03 -0.34 3.06 0 0 Z " fill="#759AA6" transform="translate(157,292)"/>
<path d="M0 0 C-1.37154504 2.95409701 -2.98863724 5.44008376 -5 8 C-5.66 7.67 -6.32 7.34 -7 7 C-4.60526316 0 -4.60526316 0 0 0 Z " fill="#7296A1" transform="translate(229,287)"/>
<path d="M0 0 C0.66 0.99 1.32 1.98 2 3 C2.66 3 3.32 3 4 3 C2.25 6.875 2.25 6.875 0 8 C-0.66 7.67 -1.32 7.34 -2 7 C-1.34 4.69 -0.68 2.38 0 0 Z " fill="#3D5056" transform="translate(242,303)"/>
<path d="M0 0 C1.31223496 3.93670488 0.24296256 6.12488144 -1 10 C-0.34 10.33 0.32 10.66 1 11 C-0.32 10.67 -1.64 10.34 -3 10 C-2.25 3.375 -2.25 3.375 0 0 Z " fill="#769CA8" transform="translate(234,296)"/>
<path d="M0 0 C1.17219543 0.78345715 2.33763668 1.57702836 3.5 2.375 C4.47453125 3.03628906 4.47453125 3.03628906 5.46875 3.7109375 C6.22671875 4.34902344 6.22671875 4.34902344 7 5 C7 5.66 7 6.32 7 7 C3.06326356 5.68775452 0.77280706 4.08089673 -2 1 C-1.34 0.67 -0.68 0.34 0 0 Z " fill="#668791" transform="translate(150,320)"/>
<path d="M0 0 C0.66 0.66 1.32 1.32 2 2 C1.67 2.99 1.34 3.98 1 5 C0.01 5.33 -0.98 5.66 -2 6 C-3.66710346 7.49985609 -3.66710346 7.49985609 -5 9 C-4.42647107 5.12867972 -2.51295648 2.91827204 0 0 Z " fill="#526C75" transform="translate(205,307)"/>
<path d="M0 0 C2.475 0.495 2.475 0.495 5 1 C4.01 1.66 3.02 2.32 2 3 C1.41810734 5.42521494 1.41810734 5.42521494 1.3125 8.125 C1.24675781 9.03507812 1.18101562 9.94515625 1.11328125 10.8828125 C1.07589844 11.58148438 1.03851563 12.28015625 1 13 C0.67 13 0.34 13 0 13 C0 8.71 0 4.42 0 0 Z " fill="#CCCCCC" transform="translate(352,303)"/>
<path d="M0 0 C1.32 0 2.64 0 4 0 C4.33 1.98 4.66 3.96 5 6 C4.01 6.495 4.01 6.495 3 7 C0 2.25 0 2.25 0 0 Z " fill="#EEEEEE" transform="translate(259,296)"/>
<path d="M0 0 C0.99 0.33 1.98 0.66 3 1 C2.01 2.98 1.02 4.96 0 7 C-0.99 6.67 -1.98 6.34 -3 6 C-1.125 1.125 -1.125 1.125 0 0 Z " fill="#607F88" transform="translate(169,291)"/>
<path d="M0 0 C0.66 0.33 1.32 0.66 2 1 C1.0479279 2.00596297 0.08812654 3.00461563 -0.875 4 C-1.40867188 4.556875 -1.94234375 5.11375 -2.4921875 5.6875 C-4 7 -4 7 -6 7 C-4.60667426 3.63279613 -3.0210714 2.0140476 0 0 Z " fill="#909090" transform="translate(191,232)"/>
<path d="M0 0 C0.33 0 0.66 0 1 0 C1 2.31 1 4.62 1 7 C1.66 7.33 2.32 7.66 3 8 C1.68 8 0.36 8 -1 8 C-1.33 6.02 -1.66 4.04 -2 2 C-1.34 2 -0.68 2 0 2 C0 1.34 0 0.68 0 0 Z " fill="#7FA7B4" transform="translate(208,305)"/>
<path d="M0 0 C0.66 0 1.32 0 2 0 C1.46930939 3.82097239 0.50298434 6.06171403 -2 9 C-1.125 2.25 -1.125 2.25 0 0 Z " fill="#87B2C0" transform="translate(218,301)"/>
</svg>
